<?xml version="1.0" standalone="no"?>
<!DOCTYPE svg PUBLIC "-//W3C//DTD SVG 20010904//EN"
 "http://www.w3.org/TR/2001/REC-SVG-20010904/DTD/svg10.dtd">
<svg version="1.0" xmlns="http://www.w3.org/2000/svg"
 width="935.000000pt" height="267.000000pt" viewBox="0 0 935.000000 267.000000"
 preserveAspectRatio="xMidYMid meet">

<g transform="translate(0.000000,267.000000) scale(0.100000,-0.100000)"
fill="#000000" stroke="none">
<path d="M453 2393 l-163 -3 6 -63 c3 -34 19 -195 35 -357 16 -162 36 -367 44
-455 9 -88 26 -268 40 -400 13 -132 29 -298 36 -370 6 -71 14 -147 18 -169 l6
-39 110 -36 c61 -20 169 -56 240 -79 72 -23 179 -58 238 -77 60 -19 115 -35
123 -35 14 0 68 17 379 116 310 99 350 114 357 131 3 10 20 153 37 318 17 165
47 449 66 630 19 182 37 362 40 400 10 122 45 449 50 473 l5 22 -752 -2 c-414
-1 -826 -4 -915 -5z m1630 -20 c3 -5 1 -39 -4 -78 -10 -87 -66 -619 -84 -815
-21 -218 -45 -442 -50 -470 -3 -14 -12 -104 -20 -200 -9 -96 -18 -192 -21
-212 l-6 -37 -222 -72 c-121 -40 -281 -91 -355 -115 l-134 -43 -96 31 c-53 17
-208 68 -346 113 l-250 82 -17 179 c-9 98 -24 249 -32 334 -9 85 -25 250 -36
365 -11 116 -27 278 -35 360 -24 244 -55 561 -55 568 0 4 262 8 583 10 320 1
716 3 879 5 163 1 299 -1 301 -5z"/>
<path d="M356 2245 c3 -55 7 -106 9 -112 4 -10 179 -13 833 -13 l829 0 12 100
c6 56 11 106 11 113 0 9 -190 12 -850 12 l-851 0 7 -100z m234 40 c17 -21 4
-32 -20 -17 -13 8 -21 8 -26 1 -7 -12 -8 -11 29 -27 19 -8 27 -19 27 -36 0
-45 -69 -60 -84 -19 -8 21 1 30 16 15 16 -16 38 -15 38 2 0 8 -11 17 -24 20
-45 11 -38 76 8 76 13 0 29 -7 36 -15z m52 -37 c2 -39 7 -53 18 -53 11 0 16
14 18 53 2 28 7 52 13 52 13 0 11 -114 -3 -128 -19 -19 -45 -14 -62 10 -16 22
-22 99 -9 111 15 16 22 4 25 -45z m125 10 l6 -43 11 40 c7 24 19 41 29 43 15
3 17 -5 17 -62 0 -36 -4 -68 -10 -71 -6 -4 -10 9 -11 32 l0 38 -12 -35 c-14
-41 -30 -42 -36 -3 l-4 28 -6 -30 c-10 -48 -26 -35 -29 24 -4 62 2 81 23 81
10 0 17 -14 22 -42z m156 -11 c9 -30 17 -62 17 -72 0 -17 -1 -17 -18 -2 -23
21 -48 22 -56 2 -6 -18 -26 -20 -26 -4 0 26 43 129 54 129 6 0 19 -24 29 -53z
m107 43 c0 -5 -6 -13 -14 -17 -9 -5 -16 -28 -18 -58 -4 -66 -22 -64 -26 3 -2
37 -7 52 -18 52 -7 0 -14 7 -14 15 0 11 12 15 45 15 25 0 45 -4 45 -10z m88
-2 c-3 -7 -18 -16 -34 -19 -29 -6 -27 -9 22 -24 22 -7 7 -25 -22 -25 -15 0
-24 -6 -24 -15 0 -10 10 -15 31 -15 20 0 29 -4 27 -12 -3 -7 -20 -13 -39 -13
l-34 0 -3 68 -3 67 41 0 c29 0 40 -4 38 -12z m106 -10 c8 -13 8 -23 -2 -38 -9
-15 -10 -26 -1 -41 13 -26 15 -24 38 42 10 30 24 54 31 54 13 0 48 -83 49
-119 1 -18 0 -18 -17 -3 -23 21 -51 22 -58 3 -10 -25 -54 -16 -70 15 -19 37
-34 37 -34 -1 0 -16 -4 -30 -10 -30 -6 0 -10 30 -10 71 l0 70 36 -3 c22 -2 42
-10 48 -20z m243 10 c6 -7 10 -35 9 -63 -1 -44 -4 -51 -27 -59 -48 -17 -59 -4
-59 69 l0 65 34 0 c18 0 38 -6 43 -12z m106 -41 c9 -30 17 -62 17 -72 0 -17
-1 -17 -18 -2 -24 22 -48 22 -56 0 -4 -10 -10 -13 -16 -7 -7 7 -5 28 6 60 9
27 17 55 20 62 8 28 31 9 47 -41z m117 33 c8 -14 8 -26 0 -40 -8 -14 -8 -26 0
-41 14 -26 16 -24 39 42 10 31 24 54 32 54 14 0 47 -81 48 -119 1 -18 0 -18
-17 -3 -20 19 -43 22 -57 8 -6 -5 -20 -12 -32 -15 -18 -6 -25 -1 -38 23 -20
39 -35 40 -35 1 0 -16 -4 -30 -10 -30 -6 0 -10 30 -10 70 l0 70 35 0 c24 0 37
-6 45 -20z m200 5 c0 -8 -7 -15 -15 -15 -12 0 -15 -13 -15 -55 0 -30 -4 -55
-10 -55 -5 0 -10 24 -10 54 0 46 -3 54 -21 59 -33 9 -12 27 32 27 28 0 39 -4
39 -15z"/>
<path d="M886 2241 c-4 -7 -5 -15 -2 -18 9 -9 19 4 14 18 -4 11 -6 11 -12 0z"/>
<path d="M1163 2258 c2 -7 10 -13 17 -13 7 0 15 6 18 13 2 7 -5 12 -18 12 -13
0 -20 -5 -17 -12z"/>
<path d="M1280 2235 c0 -8 5 -15 10 -15 6 0 10 7 10 15 0 8 -4 15 -10 15 -5 0
-10 -7 -10 -15z"/>
<path d="M1420 2260 c0 -5 7 -10 15 -10 8 0 15 5 15 10 0 6 -7 10 -15 10 -8 0
-15 -4 -15 -10z"/>
<path d="M1420 2205 c0 -10 7 -15 18 -13 21 4 19 22 -2 26 -10 2 -16 -3 -16
-13z"/>
<path d="M1536 2241 c-4 -7 -5 -15 -2 -18 9 -9 19 4 14 18 -4 11 -6 11 -12 0z"/>
<path d="M1633 2258 c2 -7 10 -13 17 -13 7 0 15 6 18 13 2 7 -5 12 -18 12 -13
0 -20 -5 -17 -12z"/>
<path d="M1750 2230 c0 -5 5 -10 10 -10 6 0 10 5 10 10 0 6 -4 10 -10 10 -5 0
-10 -4 -10 -10z"/>
<path d="M383 2018 c4 -35 11 -124 17 -198 5 -74 22 -243 36 -375 14 -132 28
-291 31 -353 7 -139 8 -141 128 -122 45 7 97 9 116 5 19 -4 52 -7 74 -6 47 0
196 1 278 0 31 0 93 0 137 0 44 0 106 0 138 -1 31 -1 82 2 113 7 37 5 74 3
108 -5 40 -9 61 -9 100 1 39 10 67 10 128 1 43 -6 90 -9 106 -5 25 5 27 9 27
52 0 25 7 105 15 176 16 149 48 479 65 670 6 72 14 149 17 173 l6 42 -823 0
-823 0 6 -62z m834 -48 c10 0 11 -4 1 -19 -14 -23 -51 -24 -66 -1 -9 15 -7 19
9 23 10 3 19 13 20 24 0 15 2 15 11 -4 6 -13 17 -23 25 -23z m7 -175 c15 -49
34 -107 42 -128 7 -20 14 -42 14 -47 0 -6 -41 -10 -100 -10 -95 0 -110 4 -92
25 12 15 48 113 67 180 23 86 25 90 34 79 5 -5 21 -49 35 -99z m76 -242 c0 -9
18 -33 40 -55 l41 -38 -197 0 -198 0 42 35 c22 20 44 44 47 55 6 18 16 20 116
20 95 0 109 -2 109 -17z m66 -121 c5 -4 16 -22 23 -40 8 -18 24 -41 37 -51 13
-11 24 -22 24 -25 0 -3 -120 -6 -266 -6 l-266 0 35 39 c19 21 38 48 42 60 6
19 14 21 158 24 84 1 163 3 177 5 14 1 30 -2 36 -6z"/>
<path d="M625 940 c-16 -4 -56 -8 -87 -9 -32 0 -58 -5 -58 -10 0 -17 74 -22
137 -10 51 10 73 10 113 0 40 -10 63 -10 121 0 56 10 85 10 147 0 61 -10 87
-10 125 0 32 8 68 9 105 4 31 -5 84 -7 117 -5 33 1 92 3 130 2 39 0 97 0 130
0 101 -1 208 -3 254 -5 28 -1 46 3 48 11 3 8 -10 12 -45 12 -28 0 -72 5 -99
11 -37 8 -60 7 -103 -4 -47 -12 -63 -12 -114 0 -52 12 -70 12 -131 -1 -40 -8
-81 -13 -91 -11 -10 2 -44 9 -74 15 -46 10 -65 9 -116 -4 -48 -12 -72 -14
-110 -6 -27 6 -62 13 -79 16 -16 3 -60 -1 -96 -9 -55 -12 -73 -12 -110 -1 -48
15 -69 16 -114 4z"/>
<path d="M625 880 c-11 -5 -46 -9 -78 -9 -42 -1 -57 -4 -54 -13 2 -9 22 -12
58 -11 101 3 180 4 389 2 41 0 104 0 140 0 36 0 97 0 135 0 39 0 98 0 133 0
34 0 98 0 142 0 86 0 159 1 243 1 28 1 78 -2 110 -5 48 -6 57 -4 57 9 0 12
-10 16 -39 16 -22 0 -61 5 -88 11 -38 9 -58 8 -98 -3 -44 -13 -59 -13 -120 -1
-61 13 -76 13 -132 -1 -35 -9 -73 -14 -86 -12 -12 2 -47 10 -77 16 -46 10 -65
9 -119 -5 -59 -15 -68 -15 -137 1 -66 16 -79 16 -141 3 -47 -11 -79 -12 -103
-6 -55 14 -113 17 -135 7z"/>
<path d="M600 809 c-19 -6 -50 -8 -69 -5 l-34 5 7 -97 c9 -134 12 -140 55
-152 20 -5 99 -30 176 -55 77 -25 192 -61 255 -81 63 -20 133 -42 156 -50 35
-12 46 -12 85 0 442 142 589 189 616 197 30 10 31 12 37 82 4 40 9 88 12 108
l5 36 -58 8 c-32 5 -87 8 -123 7 -36 -1 -90 -2 -120 -1 -74 0 -148 0 -250 0
-47 0 -111 0 -142 0 -32 0 -92 0 -133 0 -41 0 -105 0 -142 1 -38 0 -93 -1
-123 -1 -30 -1 -82 0 -115 3 -33 3 -76 0 -95 -5z m266 -41 c9 -14 -23 -38 -53
-38 -17 0 -23 -6 -23 -21 0 -18 -4 -20 -27 -14 -16 3 -34 13 -42 20 -12 12
-12 16 0 31 7 9 22 20 34 24 30 13 103 12 111 -2z m779 2 c51 -19 41 -60 -17
-74 -24 -5 -28 -3 -28 14 0 14 -7 20 -23 20 -13 0 -32 7 -43 15 -16 13 -17 16
-4 25 19 13 81 13 115 0z m-765 -50 c0 -17 -7 -20 -42 -20 -45 0 -44 8 5 26
18 6 33 12 35 13 1 0 2 -8 2 -19z m495 -6 c180 -33 232 -38 269 -27 l36 11 0
-39 c0 -50 -22 -104 -48 -118 -30 -16 -97 -13 -192 9 -149 35 -261 36 -463 5
-97 -15 -189 -24 -203 -21 -29 8 -48 47 -57 114 l-5 43 32 -7 c28 -5 135 7
316 36 78 13 232 10 315 -6z m193 6 c6 0 12 -6 12 -13 0 -9 -11 -12 -35 -9
-23 3 -35 9 -35 19 0 11 6 14 23 9 12 -3 28 -6 35 -6z"/>
<path d="M1071 683 c-1 -25 -31 -33 -31 -8 0 8 -4 15 -10 15 -12 0 -12 -37 0
-65 8 -19 9 -19 9 3 1 13 7 22 16 22 9 0 20 -10 25 -22 9 -23 9 -23 8 2 0 14
-4 36 -8 50 -8 24 -8 24 -9 3z"/>
<path d="M1150 681 c0 -11 9 -23 20 -26 20 -6 25 -16 13 -28 -3 -4 -12 -2 -20
4 -8 8 -13 8 -13 1 0 -15 22 -21 43 -10 17 9 24 38 9 38 -5 0 -17 7 -28 16
-19 15 -18 15 4 11 12 -3 22 -1 22 4 0 5 -11 9 -25 9 -18 0 -25 -5 -25 -19z"/>
<path d="M1237 660 l-15 -40 25 6 c16 4 28 2 34 -7 12 -20 12 22 -1 55 -13 36
-24 32 -43 -14z m29 -7 c-10 -10 -19 5 -10 18 6 11 8 11 12 0 2 -7 1 -15 -2
-18z"/>
<path d="M950 666 c-5 -15 -10 -39 -10 -52 0 -23 1 -24 16 -10 19 19 26 20 42
4 20 -20 13 4 -13 46 l-24 40 -11 -28z m30 -27 c0 -5 -4 -9 -10 -9 -5 0 -10 7
-10 16 0 8 5 12 10 9 6 -3 10 -10 10 -16z"/>
<path d="M1320 673 c0 -10 -3 -29 -6 -43 -5 -24 -5 -25 11 -5 16 20 25 15 38
-20 3 -5 7 -7 11 -3 4 3 2 16 -4 28 -9 16 -9 25 -1 33 19 19 12 31 -7 14 -23
-21 -33 -22 -26 -2 4 8 1 15 -5 15 -6 0 -11 -8 -11 -17z"/>
<path d="M1424 653 c-10 -15 -22 -34 -28 -41 -7 -11 -4 -12 18 -6 19 5 31 2
37 -7 6 -9 9 0 9 28 0 52 -14 62 -36 26z m26 -18 c0 -8 -4 -15 -10 -15 -5 0
-10 7 -10 15 0 8 5 15 10 15 6 0 10 -7 10 -15z"/>
<path d="M900 636 c5 -23 4 -38 -3 -43 -12 -8 -37 24 -37 49 0 10 -5 18 -10
18 -12 0 -3 -48 13 -68 6 -7 20 -12 31 -10 17 2 21 9 18 38 -1 19 -7 39 -12
44 -5 5 -5 -7 0 -28z"/>
<path d="M1490 659 c0 -4 5 -9 10 -11 7 -2 7 -14 -1 -36 -6 -18 -9 -35 -6 -38
3 -3 11 12 18 35 6 22 16 38 20 35 5 -3 9 -1 9 4 0 5 -11 12 -25 14 -14 3 -25
2 -25 -3z"/>
<path d="M765 641 c-3 -5 2 -11 11 -13 10 -2 23 -19 30 -38 l12 -35 -1 47 c-2
42 -5 48 -24 48 -12 0 -24 -4 -28 -9z"/>
<path d="M1561 626 c-7 -8 -11 -27 -9 -43 2 -22 8 -28 28 -28 33 0 60 46 41
69 -17 20 -45 21 -60 2z m48 -10 c9 -10 7 -19 -7 -36 -20 -25 -42 -20 -42 9 0
17 18 41 31 41 4 0 12 -6 18 -14z"/>
<path d="M3705 2240 c-103 -15 -160 -93 -159 -215 0 -92 27 -154 84 -191 35
-23 51 -27 114 -27 86 0 137 23 176 81 23 33 25 47 25 137 0 93 -2 103 -28
141 -41 61 -120 88 -212 74z m107 -84 c26 -19 48 -79 48 -131 0 -52 -22 -112
-48 -131 -25 -19 -103 -17 -128 4 -34 27 -44 56 -44 127 0 71 10 100 44 127
25 21 103 23 128 4z"/>
<path d="M2550 2026 l0 -216 106 0 c121 0 165 14 195 64 35 57 14 139 -38 152
l-26 7 26 13 c35 19 52 73 37 119 -18 54 -55 68 -187 73 l-113 4 0 -216z m190
131 c14 -7 26 -22 28 -34 5 -34 -24 -53 -79 -53 l-49 0 0 50 0 50 38 0 c20 0
48 -6 62 -13z m3 -168 c71 -38 35 -109 -55 -109 l-48 0 0 60 0 60 41 0 c22 0
50 -5 62 -11z"/>
<path d="M2960 2025 l0 -215 45 0 45 0 0 215 0 215 -45 0 -45 0 0 -215z"/>
<path d="M3160 2025 l0 -215 45 0 45 0 0 85 c0 83 0 85 24 85 20 0 35 -16 78
-85 l53 -85 48 0 c55 0 57 -8 -21 104 l-55 79 30 26 c55 46 67 95 37 152 -24
48 -82 69 -191 69 l-93 0 0 -215z m173 134 c69 -37 38 -109 -45 -109 l-38 0 0
60 0 60 31 0 c17 0 40 -5 52 -11z"/>
<path d="M4295 2224 c-75 -39 -105 -96 -105 -199 0 -89 24 -143 81 -184 38
-28 49 -31 118 -31 87 0 121 15 167 76 28 36 29 43 29 139 0 96 -1 103 -29
139 -45 59 -80 76 -161 76 -44 0 -81 -6 -100 -16z m141 -59 c43 -18 64 -63 64
-140 0 -78 -21 -122 -67 -141 -30 -13 -44 -14 -75 -4 -56 16 -78 57 -78 143 0
81 18 123 63 142 41 18 50 18 93 0z"/>
<path d="M4690 2026 l0 -216 45 0 45 0 0 85 c0 83 0 85 24 85 20 0 35 -16 78
-85 53 -84 53 -85 96 -85 23 0 42 2 42 4 0 5 -68 111 -99 156 -17 24 -17 25
21 61 32 30 38 42 38 77 0 94 -43 124 -192 130 l-98 4 0 -216z m173 133 c67
-36 43 -101 -41 -115 l-42 -7 0 67 0 66 31 0 c17 0 40 -5 52 -11z"/>
<path d="M5185 2221 c-74 -34 -109 -97 -109 -196 -1 -85 26 -151 75 -186 29
-20 48 -25 124 -27 50 -2 102 1 118 7 l27 11 0 110 0 110 -80 0 -80 0 0 -35
c0 -34 1 -35 40 -35 l40 0 0 -50 c0 -49 0 -49 -36 -56 -74 -14 -133 39 -142
125 -6 64 12 116 51 145 50 37 99 40 168 12 11 -5 18 2 26 28 10 34 10 35 -20
45 -49 18 -157 13 -202 -8z"/>
<path d="M5617 2198 c-8 -24 -40 -113 -70 -198 -30 -85 -58 -163 -62 -172 -6
-16 -1 -18 38 -18 l45 0 17 50 17 50 84 0 83 0 14 -47 c14 -48 14 -48 60 -51
l46 -3 -9 28 c-4 15 -38 111 -74 212 -36 102 -66 186 -66 188 0 2 -24 3 -54 3
l-54 0 -15 -42z m98 -111 c14 -46 25 -88 25 -95 0 -8 -19 -12 -55 -12 -41 0
-55 4 -55 14 0 19 49 176 55 176 2 0 16 -37 30 -83z"/>
<path d="M5956 2128 c-4 -62 -6 -159 -4 -215 l3 -103 39 0 39 0 -5 165 c-3 90
-2 162 2 160 4 -3 31 -46 60 -97 145 -254 123 -228 186 -228 l54 0 0 215 0
215 -35 0 -35 0 -2 -166 -3 -165 -95 163 -95 163 -51 3 -52 3 -6 -113z"/>
<path d="M6450 2025 l0 -215 40 0 40 0 0 215 0 215 -40 0 -40 0 0 -215z"/>
<path d="M6694 2230 c-64 -25 -86 -123 -40 -177 13 -15 46 -39 73 -52 68 -35
83 -50 83 -83 0 -51 -45 -57 -167 -22 -21 6 -23 3 -23 -30 0 -48 28 -59 132
-54 71 3 80 6 109 34 20 21 32 44 35 70 7 58 -20 93 -105 138 -50 26 -73 44
-77 61 -14 57 51 76 137 41 11 -5 19 1 27 19 7 14 12 30 12 34 0 26 -147 41
-196 21z"/>
<path d="M7080 2237 c0 -1 -18 -54 -41 -117 -23 -63 -56 -159 -75 -213 l-33
-98 47 3 c46 3 46 3 60 51 l13 47 83 0 82 0 18 -50 c18 -50 18 -50 63 -50 39
0 44 2 38 18 -9 22 -104 287 -117 327 -29 88 -26 85 -84 85 -30 0 -54 -1 -54
-3z m84 -141 c36 -117 37 -116 -29 -116 -32 0 -55 4 -55 11 0 11 52 189 56
189 1 0 13 -38 28 -84z"/>
<path d="M7433 2219 c-54 -34 -65 -107 -27 -166 8 -13 46 -39 83 -58 73 -36
90 -59 71 -95 -19 -35 -53 -37 -157 -5 -21 7 -23 4 -23 -28 0 -47 19 -57 112
-57 106 0 157 38 158 117 0 54 -33 95 -106 129 -85 40 -105 89 -46 113 21 9
38 8 75 -3 l49 -15 13 32 c13 31 13 32 -18 44 -54 19 -147 16 -184 -8z"/>
<path d="M7740 2025 l0 -215 45 0 45 0 0 215 0 215 -45 0 -45 0 0 -215z"/>
<path d="M2545 1355 c-48 -47 -30 -92 58 -145 28 -16 37 -28 35 -44 -3 -18 -9
-21 -48 -20 -25 0 -53 4 -63 8 -16 8 -18 5 -15 -20 2 -23 9 -30 38 -36 54 -12
107 0 130 29 36 47 17 94 -52 129 -56 28 -68 48 -44 72 13 13 23 14 55 6 34
-9 41 -8 46 5 17 44 -99 58 -140 16z"/>
<path d="M2860 1240 l0 -140 80 0 c73 0 80 2 80 20 0 18 -7 20 -55 20 l-55 0
0 40 0 40 50 0 c43 0 50 3 50 19 0 17 -8 20 -47 23 -48 3 -48 3 -48 38 l0 35
53 3 c44 3 52 6 52 23 0 17 -7 19 -80 19 l-80 0 0 -140z"/>
<path d="M3160 1355 c0 -22 4 -25 40 -25 l40 0 0 -115 0 -115 28 0 27 0 -3
115 -3 115 40 0 c37 0 41 2 41 25 l0 25 -105 0 -105 0 0 -25z"/>
<path d="M3530 1240 l0 -140 76 0 c75 0 77 1 115 39 36 36 39 43 39 96 0 101
-57 145 -184 145 l-46 0 0 -140z m155 69 c15 -14 20 -33 20 -70 0 -43 -4 -54
-28 -75 -16 -14 -41 -24 -58 -24 l-29 0 0 101 0 101 38 -7 c20 -3 46 -15 57
-26z"/>
<path d="M3995 1368 c-3 -7 -21 -58 -41 -113 -59 -164 -57 -155 -24 -155 25 0
31 5 38 33 8 30 11 32 60 35 52 3 53 2 67 -32 13 -30 21 -36 44 -36 l29 0 -28
78 c-16 42 -38 105 -51 140 -21 60 -23 62 -56 62 -18 0 -36 -6 -38 -12z m75
-150 c0 -5 -16 -8 -35 -8 -41 0 -44 11 -18 86 l17 49 18 -60 c10 -33 18 -63
18 -67z"/>
<path d="M4420 1240 l0 -140 30 0 c29 0 30 1 30 50 l0 50 40 0 c54 0 90 34 90
85 0 20 -5 45 -10 55 -12 23 -68 40 -132 40 l-48 0 0 -140z m118 84 c12 -8 22
-22 22 -31 0 -25 -30 -53 -57 -53 -21 0 -23 4 -23 50 0 55 15 64 58 34z"/>
<path d="M4780 1240 l0 -140 25 0 c23 0 25 3 25 49 0 80 29 80 76 1 23 -40 34
-50 57 -50 15 0 27 2 27 5 0 3 -16 29 -35 57 l-34 51 24 29 c26 31 32 67 15
98 -12 23 -68 40 -132 40 l-48 0 0 -140z m128 72 c6 -9 12 -19 12 -23 0 -17
-34 -39 -61 -39 -27 0 -29 3 -29 38 0 21 3 42 6 45 11 10 58 -4 72 -21z"/>
<path d="M5203 1365 c-41 -18 -63 -61 -63 -125 0 -94 41 -142 123 -144 98 -2
137 40 137 146 0 41 -5 71 -16 86 -34 49 -115 66 -181 37z m117 -43 c34 -28
40 -117 10 -154 -28 -37 -91 -40 -114 -6 -25 35 -21 126 6 155 26 28 67 30 98
5z"/>
<path d="M5548 1358 c4 -13 25 -76 47 -141 l40 -118 33 3 c33 3 33 3 77 133
25 72 45 133 45 138 0 4 -11 7 -24 7 -27 0 -33 -13 -66 -130 -12 -41 -24 -82
-27 -90 -6 -17 -6 -18 -50 128 -26 86 -29 92 -54 92 -24 0 -26 -3 -21 -22z"/>
<path d="M5940 1240 l0 -140 30 0 30 0 0 140 0 140 -30 0 -30 0 0 -140z"/>
<path d="M6180 1240 l0 -140 26 0 26 0 -4 105 c-1 58 -1 105 2 105 3 0 24 -32
45 -70 84 -149 76 -140 118 -140 l37 0 0 140 0 140 -25 0 c-24 0 -24 -1 -27
-107 l-3 -108 -34 60 c-18 33 -45 81 -59 108 -25 43 -30 47 -64 47 l-38 0 0
-140z"/>
<path d="M6626 1357 c-46 -47 -30 -98 45 -140 40 -22 50 -32 47 -50 -2 -17
-11 -23 -40 -25 -20 -2 -46 2 -58 8 -18 10 -20 8 -20 -18 0 -27 4 -30 40 -36
68 -11 114 7 131 52 16 42 0 71 -56 103 -59 33 -73 55 -50 78 12 12 22 13 55
5 35 -10 40 -9 46 8 8 27 2 31 -60 36 -48 4 -57 1 -80 -21z"/>
<path d="M6940 1240 l0 -140 30 0 30 0 0 140 0 140 -30 0 -30 0 0 -140z"/>
<path d="M2545 795 c-47 -46 -26 -104 52 -143 50 -26 60 -47 30 -67 -18 -11
-31 -12 -57 -5 -50 14 -60 13 -60 -10 0 -25 35 -40 91 -40 31 0 47 7 70 29 16
16 29 39 29 51 0 25 -50 77 -99 102 -51 27 -39 53 24 53 57 0 80 19 49 42 -31
23 -101 17 -129 -12z"/>
<path d="M2860 708 c0 -120 8 -142 57 -167 55 -28 144 0 162 51 6 17 11 75 11
129 l0 99 -30 0 -30 0 0 -108 c0 -119 -6 -132 -54 -132 -56 0 -61 9 -64 130
-4 109 -4 110 -28 110 -24 0 -24 0 -24 -112z"/>
<path d="M3270 675 l0 -145 25 0 25 0 1 118 0 117 37 -117 c32 -107 38 -118
59 -118 27 0 32 9 68 132 14 48 29 89 33 92 4 2 5 -47 3 -110 l-3 -114 26 0
26 0 0 146 0 145 -37 -3 -38 -3 -35 -107 c-19 -60 -38 -108 -41 -108 -3 0 -11
19 -18 43 -7 23 -22 72 -33 110 l-20 67 -39 0 -39 0 0 -145z"/>
<path d="M3820 817 c0 -4 -37 -110 -74 -212 -14 -38 -26 -71 -26 -72 0 -2 13
-3 29 -3 25 0 31 6 41 35 l12 36 56 -3 c54 -3 57 -4 66 -35 7 -28 14 -33 39
-33 24 0 28 3 22 18 -4 9 -17 49 -30 87 -62 184 -60 180 -99 183 -20 2 -36 1
-36 -1z m63 -114 l15 -53 -39 0 c-21 0 -39 4 -39 8 0 26 33 113 40 106 4 -5
14 -33 23 -61z"/>
<path d="M4110 795 c0 -22 4 -25 40 -25 l40 0 0 -120 0 -120 25 0 25 0 0 120
0 120 40 0 c36 0 40 3 40 25 l0 25 -105 0 -105 0 0 -25z"/>
<path d="M4480 675 l0 -145 80 0 c79 0 80 0 80 25 0 24 -3 25 -55 25 l-55 0 0
40 0 40 50 0 c43 0 50 3 50 20 0 17 -7 20 -50 20 l-50 0 0 35 0 35 55 0 c52 0
55 1 55 25 0 25 -1 25 -80 25 l-80 0 0 -145z"/>
<path d="M4810 675 l0 -145 25 0 c24 0 25 3 25 54 0 30 5 58 11 61 14 9 44
-19 74 -71 21 -36 31 -44 55 -44 l30 0 -40 61 -40 62 26 30 c21 25 25 38 20
66 -8 50 -44 68 -133 70 l-53 1 0 -145z m125 55 c0 -33 -2 -35 -37 -38 l-38
-3 0 41 0 41 38 -3 c35 -3 37 -5 37 -38z"/>
<path d="M5223 758 c-12 -35 -35 -100 -51 -145 l-29 -83 28 0 c23 0 29 6 39
35 11 35 12 35 70 35 l59 0 7 -35 c5 -30 10 -35 35 -35 35 0 36 -7 -24 165
l-42 120 -35 3 c-36 3 -36 3 -57 -60z m81 -55 l15 -53 -40 0 c-28 0 -39 4 -37
13 2 6 10 33 18 59 8 27 17 45 21 40 4 -4 14 -31 23 -59z"/>
<path d="M5670 675 l0 -145 53 0 c68 0 124 16 137 40 18 34 12 77 -15 98 -20
16 -22 21 -10 26 24 9 36 52 24 80 -13 28 -70 46 -143 46 l-46 0 0 -145z m137
79 c10 -27 -11 -49 -51 -52 -35 -3 -36 -2 -36 32 0 35 1 36 40 36 28 0 43 -5
47 -16z m-3 -110 c9 -8 16 -19 16 -24 0 -20 -34 -40 -66 -40 -33 0 -34 1 -34
40 0 39 1 40 34 40 19 0 42 -7 50 -16z"/>
<path d="M6101 798 c-36 -98 -91 -257 -91 -264 0 -2 13 -4 29 -4 23 0 30 6 37
33 9 31 12 32 65 35 55 3 56 3 65 -30 8 -27 15 -34 41 -36 l31 -3 -40 113
c-22 62 -44 128 -49 146 -9 28 -14 32 -45 32 -27 0 -36 -5 -43 -22z m79 -140
c0 -5 -18 -8 -39 -8 l-39 0 14 48 c24 80 25 80 45 22 10 -30 19 -58 19 -62z"/>
<path d="M6430 675 l0 -145 25 0 c24 0 25 3 25 54 0 30 5 58 11 61 15 10 43
-19 70 -71 20 -36 29 -44 51 -44 16 0 28 3 28 7 0 3 -17 31 -37 60 l-36 53 21
23 c70 75 14 147 -115 147 l-43 0 0 -145z m114 89 c19 -7 21 -45 4 -62 -7 -7
-25 -12 -40 -12 -26 0 -28 3 -28 40 0 36 3 40 24 40 13 0 31 -3 40 -6z"/>
<path d="M6860 818 c0 -2 -22 -68 -50 -146 l-49 -142 29 0 c24 0 30 6 40 35
l12 36 56 -3 c54 -3 57 -4 66 -35 7 -28 14 -33 38 -33 23 0 28 4 24 18 -3 9
-26 73 -50 142 l-44 125 -36 3 c-20 2 -36 2 -36 0z m63 -115 l15 -53 -39 0
c-21 0 -39 4 -39 8 0 26 33 113 40 106 4 -5 14 -33 23 -61z"/>
<path d="M7150 795 c0 -22 4 -25 40 -25 l40 0 0 -120 0 -120 25 0 25 0 0 120
0 120 40 0 c36 0 40 3 40 25 l0 25 -105 0 -105 0 0 -25z"/>
<path d="M2016 296 c4 -9 -3 -16 -18 -19 -13 -2 10 -5 50 -6 66 -1 72 1 72 19
0 18 -7 20 -55 20 -43 0 -53 -3 -49 -14z"/>
</g>
</svg>
